<svg enable-background="new 0 0 540 150" viewBox="0 0 540 150" xmlns="http://www.w3.org/2000/svg"><path d="m20.2 64.8c-.6-.8-1.8-1-2.7-.3-.2.2-.4.4-.6.7l-16.2 32.4c-.4 1 0 2.2 1 2.6.2.1.5.2.7.2h22.6c.7 0 1.4-.4 1.7-1.1 5-10 2-25.3-6.5-34.5z"/><path d="m32.1 35.3c-8.2 12.7-9.2 28.7-2.5 42.3l10.9 21.8c.3.7 1 1.1 1.7 1.1h22.6c1.1 0 1.9-.9 1.9-1.9 0-.3-.1-.6-.2-.9 0 0-30.4-60.8-31.2-62.3-.4-.9-1.5-1.3-2.4-.9-.3.1-.6.4-.8.8z"/><path d="m493 46v54.4h11.6v-41.5l4.9 11.1 16.4 30.4h14.6v-54.4h-11.6v35.1l-4.4-10.2-13.1-24.9z"/><path d="m406.6 46h12.7v54.4h-12.7z"/><path d="m392 84.4c0-9.5-5.1-14-19.3-17.1-7.9-1.7-9.8-3.5-9.8-6 0-3.2 2.8-4.5 8-4.5 6.3 0 12.5 1.9 18.4 4.5v-12.4c-5.6-2.6-11.8-3.8-18-3.7-14.1 0-21.4 6.1-21.4 16.2 0 8 3.7 14.4 18.3 17.2 8.7 1.8 10.5 3.2 10.5 6.1s-1.8 4.6-8 4.6c-7.4-.1-14.7-2.1-21.1-5.7v13.1c4.4 2.2 10.2 4.6 21 4.6 15.3 0 21.4-6.8 21.4-16.9"/><path d="m339.2 84.4c0-9.5-5-14-19.3-17.1-7.9-1.7-9.8-3.5-9.8-6 0-3.2 2.8-4.5 8-4.5 6.3 0 12.5 1.9 18.4 4.5v-12.4c-5.6-2.6-11.8-3.8-18-3.7-14.1 0-21.4 6.1-21.4 16.2 0 8 3.7 14.4 18.3 17.2 8.7 1.8 10.5 3.2 10.5 6.1s-1.8 4.6-8 4.6c-7.4-.1-14.7-2.1-21.1-5.7v13.1c4.4 2.2 10.2 4.6 21 4.6 15.3 0 21.4-6.8 21.4-16.9"/><path d="m198.7 46v54.4h26l4.1-11.7h-17.4v-42.7z"/><path d="m147.2 46v11.8h14.1v42.6h12.8v-42.6h15v-11.8z"/><path d="m128.7 46h-16.7l-19 54.4h14.5l2.7-9.2c6.6 1.9 13.7 1.9 20.3 0l2.7 9.2h14.5zm-8.4 35.5c-2.4 0-4.7-.3-7-1l7-23.8 7 23.8c-2.2.6-4.6 1-7 1z"/><path d="m269.7 46h-16.7l-19 54.4h14.5l2.7-9.2c6.6 1.9 13.7 1.9 20.3 0l2.7 9.2h14.5zm-8.4 35.5c-2.4 0-4.7-.3-7-1l7-23.8 7 23.8c-2.3.6-4.6 1-7 1z"/><path d="m464.9 46h-16.7l-19 54.4h14.5l2.7-9.2c6.6 1.9 13.7 1.9 20.3 0l2.7 9.2h14.5zm-8.3 35.5c-2.4 0-4.7-.3-7-1l7-23.8 7 23.8c-2.3.6-4.7 1-7 1z"/></svg>